<svg width="0" height="0" style="position:absolute"><symbol viewBox="0 0 24 24" id="black--hamburger_black" xmlns="http://www.w3.org/2000/svg"><title>hamburger_black</title><defs><path d="M2 15.5v2h20v-2H2zm0-5v2h20v-2H2zm0-5v2h20v-2H2z" id="aa"/></defs><g fill="none" fill-rule="evenodd"><path d="M0 0h24v24H0z"/><use fill="#333537" xlink:href="#aa"/></g></symbol><symbol viewBox="0 0 24 24" id="black--radio_black" xmlns="http://www.w3.org/2000/svg"><title>radio_black</title><defs><path d="M12.053 4A8.053 8.053 0 0 0 4 12.053v6.263A2.68 2.68 0 0 0 6.684 21h2.684v-7.158H5.79v-1.79c0-3.462 2.801-6.263 6.264-6.263 3.462 0 6.263 2.801 6.263 6.264v1.79h-3.58V21h2.685a2.68 2.68 0 0 0 2.684-2.684v-6.263A8.053 8.053 0 0 0 12.053 4z" id="ba"/></defs><g fill="none" fill-rule="evenodd"><path d="M0 0h24v24H0z"/><use fill="#333537" xlink:href="#ba"/></g></symbol></svg>